<svg xmlns="http://www.w3.org/2000/svg" viewBox="0 0 399.6 407.53">
  <rect width="399.6" height="407.53" fill="white"/>
  <g transform="scale(0.9) translate(20, 20)">
    <path d="M34.79,1.47c8.36-.66,20.65,4.3,26.79,9.7,17.41,15.34,38.99,119.55,51.95,148.05,12.93,28.43,51.29,28.42,63.87-.12S211.98,24.88,231.11,9.8C246.88-2.62,330.07-.26,353.59,1.18c35.47,2.16,62.31,33.35,34.46,62.57-14.14,14.83-114.09,38.29-140.56,48.44-56.3,21.59-18.28,92.16,29.45,59.45,17.48-11.97,58.61-56.67,75.36-60.64,23.87-5.65,45.65,12.74,46.82,36.73,1.05,21.62-3.32,91.95-7.09,113-2.1,11.71-11.99,22.2-23.95,24.05-43.04,6.64-95.16-92.82-137.54-55.54-15.13,13.31-38.98,118.9-50.47,145.53-4.2,9.73-12.86,19.47-23.05,22.95-9.14,3.12-111.98,3.35-125.54,1.57-16.67-2.19-29.87-19.32-31.48-35.52V37.7C.97,20.5,17.45,2.84,34.79,1.47Z" fill="black"/>
    <path d="M309.59,314.67c57.46,33.53,1.06,122.07-54.18,83.16-49.54-34.9-2.32-116.13,54.18-83.16Z" fill="black"/>
    <path d="M242.53,348.23c-2-.17-4-.33-6-.5" fill="none" stroke="black" stroke-linecap="round" stroke-linejoin="round" stroke-width="2"/>
  </g>
</svg>